<mxfile host="app.diagrams.net" modified="2022-12-01T15:04:30.755Z" agent="5.0 (Windows NT 10.0; Win64; x64) AppleWebKit/537.36 (KHTML, like Gecko) Chrome/107.0.0.0 Safari/537.36" etag="g32p7ThMMg0aZlHH39Pd" version="20.6.0" type="github">
  <diagram name="Page-1" id="5f0bae14-7c28-e335-631c-24af17079c00">
    <mxGraphModel dx="3170" dy="1263" grid="0" gridSize="12" guides="1" tooltips="1" connect="1" arrows="1" fold="1" page="0" pageScale="1" pageWidth="1100" pageHeight="850" background="#FFFFFF" math="0" shadow="0">
      <root>
        <mxCell id="0" />
        <mxCell id="1" parent="0" />
        <mxCell id="39150e848f15840c-1" value="&lt;b style=&quot;font-size: 16px;&quot;&gt;Backend&lt;/b&gt;" style="verticalAlign=top;align=left;spacingTop=8;spacingLeft=2;spacingRight=12;shape=cube;size=10;direction=south;fontStyle=0;html=1;rounded=0;shadow=0;comic=0;labelBackgroundColor=none;strokeWidth=1;fontFamily=Verdana;fontSize=16;" parent="1" vertex="1">
          <mxGeometry x="166" y="408" width="435" height="414" as="geometry" />
        </mxCell>
        <mxCell id="hUTgePlE9-KlCkjkMWq--14" style="edgeStyle=orthogonalEdgeStyle;rounded=0;orthogonalLoop=1;jettySize=auto;html=1;exitX=0;exitY=0;exitDx=115;exitDy=330;exitPerimeter=0;fontSize=24;" edge="1" parent="1" source="39150e848f15840c-2" target="hUTgePlE9-KlCkjkMWq--13">
          <mxGeometry relative="1" as="geometry" />
        </mxCell>
        <mxCell id="hUTgePlE9-KlCkjkMWq--15" value="frontend:8080" style="edgeLabel;html=1;align=center;verticalAlign=middle;resizable=0;points=[];fontSize=24;fontStyle=1" vertex="1" connectable="0" parent="hUTgePlE9-KlCkjkMWq--14">
          <mxGeometry x="-0.2392" y="2" relative="1" as="geometry">
            <mxPoint x="78" y="-1" as="offset" />
          </mxGeometry>
        </mxCell>
        <mxCell id="39150e848f15840c-2" value="&lt;b style=&quot;font-size: 16px;&quot;&gt;Frontend&lt;/b&gt;" style="verticalAlign=top;align=left;spacingTop=8;spacingLeft=2;spacingRight=12;shape=cube;size=10;direction=south;fontStyle=0;html=1;rounded=0;shadow=0;comic=0;labelBackgroundColor=none;strokeWidth=1;fontFamily=Verdana;fontSize=16;" parent="1" vertex="1">
          <mxGeometry x="328" y="30" width="330" height="220" as="geometry" />
        </mxCell>
        <mxCell id="hUTgePlE9-KlCkjkMWq--3" value="" style="group;fontSize=16;" vertex="1" connectable="0" parent="1">
          <mxGeometry x="1018" y="350" width="320" height="180" as="geometry" />
        </mxCell>
        <mxCell id="39150e848f15840c-3" value="&lt;b style=&quot;&quot;&gt;&lt;font style=&quot;font-size: 16px;&quot;&gt;Databases&lt;/font&gt;&lt;/b&gt;" style="verticalAlign=top;align=left;spacingTop=8;spacingLeft=2;spacingRight=12;shape=cube;size=10;direction=south;fontStyle=0;html=1;rounded=0;shadow=0;comic=0;labelBackgroundColor=none;strokeWidth=1;fontFamily=Verdana;fontSize=14;" parent="hUTgePlE9-KlCkjkMWq--3" vertex="1">
          <mxGeometry width="320" height="180" as="geometry" />
        </mxCell>
        <mxCell id="hUTgePlE9-KlCkjkMWq--1" value="MongoDB" style="shape=cylinder3;whiteSpace=wrap;html=1;boundedLbl=1;backgroundOutline=1;size=15;shadow=0;fillColor=#DBDBDB;fontSize=14;" vertex="1" parent="hUTgePlE9-KlCkjkMWq--3">
          <mxGeometry x="30" y="48" width="110" height="100" as="geometry" />
        </mxCell>
        <mxCell id="hUTgePlE9-KlCkjkMWq--2" value="InfluxDB" style="shape=cylinder3;whiteSpace=wrap;html=1;boundedLbl=1;backgroundOutline=1;size=15;shadow=0;fillColor=#DBDBDB;fontSize=14;" vertex="1" parent="hUTgePlE9-KlCkjkMWq--3">
          <mxGeometry x="170" y="48" width="110" height="100" as="geometry" />
        </mxCell>
        <mxCell id="hUTgePlE9-KlCkjkMWq--8" style="edgeStyle=orthogonalEdgeStyle;rounded=0;orthogonalLoop=1;jettySize=auto;html=1;exitX=0;exitY=0.5;exitDx=0;exitDy=0;exitPerimeter=0;fontSize=14;" edge="1" parent="1" source="hUTgePlE9-KlCkjkMWq--1" target="39150e848f15840c-1">
          <mxGeometry relative="1" as="geometry" />
        </mxCell>
        <mxCell id="hUTgePlE9-KlCkjkMWq--9" style="edgeStyle=orthogonalEdgeStyle;rounded=0;orthogonalLoop=1;jettySize=auto;html=1;exitX=0.5;exitY=1;exitDx=0;exitDy=0;exitPerimeter=0;entryX=0.92;entryY=0.002;entryDx=0;entryDy=0;entryPerimeter=0;fontSize=14;" edge="1" parent="1" source="hUTgePlE9-KlCkjkMWq--2" target="39150e848f15840c-1">
          <mxGeometry relative="1" as="geometry" />
        </mxCell>
        <mxCell id="hUTgePlE9-KlCkjkMWq--11" value="&lt;b style=&quot;font-size: 24px;&quot;&gt;&lt;font style=&quot;font-size: 24px;&quot;&gt;influx:8086&lt;/font&gt;&lt;/b&gt;" style="edgeLabel;html=1;align=center;verticalAlign=middle;resizable=0;points=[];fontSize=24;spacing=20;spacingRight=20;spacingLeft=20;" vertex="1" connectable="0" parent="hUTgePlE9-KlCkjkMWq--9">
          <mxGeometry x="0.2621" y="3" relative="1" as="geometry">
            <mxPoint as="offset" />
          </mxGeometry>
        </mxCell>
        <mxCell id="hUTgePlE9-KlCkjkMWq--12" value="&lt;b style=&quot;font-size: 16px;&quot;&gt;Traefik&lt;/b&gt;" style="verticalAlign=top;align=left;spacingTop=8;spacingLeft=2;spacingRight=12;shape=cube;size=10;direction=south;fontStyle=0;html=1;rounded=0;shadow=0;comic=0;labelBackgroundColor=none;strokeWidth=1;fontFamily=Verdana;fontSize=16;" vertex="1" parent="1">
          <mxGeometry x="-661" y="80" width="363" height="660" as="geometry" />
        </mxCell>
        <mxCell id="hUTgePlE9-KlCkjkMWq--13" value="https://dust.devbit.be" style="rounded=1;whiteSpace=wrap;html=1;shadow=0;fontSize=24;fillColor=#DBDBDB;" vertex="1" parent="1">
          <mxGeometry x="-650" y="146" width="322" height="60" as="geometry" />
        </mxCell>
      </root>
    </mxGraphModel>
  </diagram>
</mxfile>
